<?xml version="1.0" encoding="UTF-8"?>
<svg width="32px" height="32px" viewBox="0 0 32 32" xmlns="http://www.w3.org/2000/svg" xmlns:xlink="http://www.w3.org/1999/xlink" version="1.1">
 <!-- Generated by Pixelmator Pro 1.6.1 -->
 <g id="group">
  <path id="Path" d="M16 2 C8.3 2 2 8.3 2 16 2 23.7 8.3 30 16 30 23.7 30 30 23.7 30 16 30 8.3 23.7 2 16 2 Z M10 26.4 L10 24.4 C9.9 22.6 11.2 21.1 13 21 L19 21 C20.8 21.1 22.1 22.6 22 24.4 L22 26.4 C18.3 28.6 13.7 28.6 10 26.4 Z M24 24.9 L24 24.3 C24.1 21.5 21.8 19.1 19 19 L13 19 C10.2 19.1 7.9 21.5 8 24.3 L8 24.9 C3.1 20.5 2.6 12.9 7.1 8 11.6 3.1 19.1 2.6 24 7 28.9 11.4 29.4 19 24.9 23.9 24.6 24.3 24.3 24.6 24 24.9 Z" fill="#ffffff" fill-opacity="1" stroke="none"/>
  <path id="Path-1" d="M16 7 C13.2 7 11 9.2 11 12 11 14.8 13.2 17 16 17 18.8 17 21 14.8 21 12 21 9.2 18.8 7 16 7 Z M16 15 C14.3 15 13 13.7 13 12 13 10.3 14.3 9 16 9 17.7 9 19 10.3 19 12 19 13.7 17.7 15 16 15 Z" fill="#ffffff" fill-opacity="1" stroke="none"/>
 </g>
</svg>
